<?xml version="1.0" standalone="no"?>
<!DOCTYPE svg PUBLIC "-//W3C//DTD SVG 20010904//EN"
 "http://www.w3.org/TR/2001/REC-SVG-20010904/DTD/svg10.dtd">
<svg version="1.0" xmlns="http://www.w3.org/2000/svg"
 width="512.000000pt" height="512.000000pt" viewBox="0 0 512.000000 512.000000"
 preserveAspectRatio="xMidYMid meet">

<g transform="translate(0.000000,512.000000) scale(0.100000,-0.100000)"
fill="#000000" stroke="none">
<path d="M2264 4951 c-34 -10 -85 -32 -113 -50 -54 -35 -151 -135 -150 -154 0
-7 40 -31 88 -54 192 -93 327 -295 339 -509 4 -79 4 -81 -23 -102 -36 -29 -70
-28 -100 3 -18 17 -25 35 -25 62 0 21 -7 67 -15 102 -50 212 -253 371 -472
371 -152 0 -321 -92 -403 -220 -55 -86 -72 -144 -79 -269 -6 -109 -7 -115 -33
-134 -25 -19 -30 -19 -90 -6 -231 51 -451 -50 -552 -252 -47 -94 -63 -188 -48
-286 7 -42 14 -78 16 -80 2 -3 35 5 73 17 91 27 234 40 273 24 52 -22 52 -105
0 -131 -14 -7 -44 -13 -67 -13 -56 0 -167 -24 -234 -50 -141 -55 -275 -170
-352 -301 -89 -152 -120 -355 -78 -519 41 -164 134 -308 261 -403 l62 -47 34
44 c39 51 113 112 178 146 43 23 48 24 73 10 65 -36 62 -97 -5 -144 -164 -112
-235 -237 -235 -416 0 -110 20 -177 78 -265 98 -147 251 -222 429 -212 106 5
174 28 261 87 45 32 65 40 85 35 41 -11 60 -34 60 -76 0 -35 -5 -42 -52 -78
-29 -21 -72 -48 -95 -60 -39 -19 -43 -25 -43 -57 0 -20 7 -63 16 -97 67 -260
331 -418 587 -351 74 19 145 54 190 94 48 42 76 51 115 35 34 -15 48 -48 38
-89 -8 -33 -96 -101 -183 -143 -40 -20 -73 -39 -73 -44 0 -4 25 -35 56 -68 66
-72 165 -125 263 -142 170 -30 371 63 458 212 l21 36 -65 6 c-77 6 -106 28
-106 78 0 23 8 39 27 56 23 20 38 23 107 23 l79 0 0 276 0 277 -142 -5 c-111
-3 -152 -8 -181 -23 -78 -37 -136 -122 -137 -198 0 -27 -7 -45 -25 -62 -30
-31 -64 -32 -100 -3 -25 20 -27 25 -23 87 9 156 126 295 283 336 39 10 104 15
192 15 l133 0 0 515 0 515 -624 0 -625 0 -20 26 c-28 35 -26 69 4 99 l24 25
621 0 620 0 0 630 0 630 -323 0 c-256 0 -335 3 -381 15 -161 42 -282 185 -294
345 -4 59 -2 70 17 89 27 27 82 28 106 1 10 -11 22 -46 27 -77 16 -108 90
-190 191 -212 28 -7 177 -11 352 -11 l305 0 0 250 0 250 -81 0 c-92 0 -111 7
-128 49 -10 24 -10 34 3 59 20 38 31 42 127 42 l79 0 0 27 c0 53 -33 159 -67
215 -102 170 -317 254 -509 199z m-369 -491 c24 -27 23 -76 -2 -101 -12 -13
-41 -23 -74 -28 -94 -12 -148 -61 -168 -151 -17 -78 -78 -104 -128 -54 -23 23
-25 31 -20 75 19 160 150 277 313 279 49 0 65 -4 79 -20z m-734 -676 c86 -26
145 -60 204 -119 142 -143 174 -351 81 -533 -70 -137 -226 -238 -377 -244 -70
-3 -102 20 -102 72 0 46 29 70 102 80 165 23 276 146 275 305 -1 155 -111 280
-264 300 -25 4 -57 11 -72 17 -50 19 -57 100 -11 127 27 15 102 13 164 -5z
m874 -459 c30 -29 32 -77 10 -174 -23 -95 -71 -177 -150 -256 -102 -101 -218
-153 -349 -156 -53 -2 -62 1 -83 25 -26 30 -28 44 -12 80 14 29 45 42 118 50
117 12 243 102 297 212 14 28 30 85 36 125 12 85 35 119 80 119 17 0 39 -10
53 -25z m426 -16 c88 -22 182 -115 215 -213 23 -68 15 -176 -17 -241 -52 -105
-156 -176 -265 -183 -53 -4 -65 -1 -83 17 -27 27 -28 82 -1 106 11 10 43 22
71 26 134 21 203 172 125 274 -37 48 -62 63 -126 75 -68 13 -90 32 -90 80 0
36 17 61 50 73 16 6 64 0 121 -14z m-1754 -561 c12 -14 25 -48 31 -85 12 -68
46 -127 93 -162 56 -41 103 -51 251 -51 134 0 140 -1 163 -25 31 -30 32 -71 3
-102 -21 -22 -27 -23 -177 -23 -167 0 -220 10 -295 54 -50 29 -115 97 -145
150 -26 46 -51 136 -51 184 0 69 83 108 127 60z m1244 -876 c33 -27 30 -78 -5
-109 l-27 -23 -347 0 c-198 0 -362 -4 -383 -10 -43 -12 -114 -71 -135 -112 -8
-16 -19 -55 -24 -86 -11 -67 -36 -95 -81 -94 -51 1 -72 30 -70 96 2 107 60
214 153 283 97 71 108 72 524 73 347 0 373 -1 395 -18z m611 1 c37 -42 28
-101 -19 -122 -14 -7 -90 -11 -193 -11 -163 0 -170 1 -196 23 -35 31 -38 82
-5 109 21 16 43 18 211 18 165 0 189 -2 202 -17z m-874 -327 c70 -19 129 -55
179 -109 199 -216 83 -562 -206 -617 -77 -14 -89 -13 -116 15 -30 29 -33 77
-6 104 10 10 45 23 79 29 141 25 222 141 188 270 -24 94 -92 152 -196 168 -58
8 -90 37 -90 80 0 23 8 38 26 53 31 24 69 26 142 7z"/>
<path d="M2997 4503 c-4 -3 -7 -37 -7 -75 l0 -68 88 0 87 0 -3 75 -4 75 -77 0
c-43 0 -81 -3 -84 -7z"/>
<path d="M3779 4005 l-145 -145 -322 0 -322 0 0 -75 0 -76 338 3 c307 3 340 5
372 22 19 10 104 86 187 169 l153 151 -42 28 c-24 15 -49 37 -58 48 -14 19
-20 14 -161 -125z"/>
<path d="M2990 3326 l0 -75 425 -3 425 -3 297 -295 298 -295 52 52 52 52 -307
301 c-169 166 -320 309 -337 318 -26 15 -82 17 -467 20 l-438 3 0 -75z"/>
<path d="M2997 2813 c-4 -3 -7 -37 -7 -75 l0 -68 103 0 102 0 0 75 0 75 -96 0
c-53 0 -99 -3 -102 -7z"/>
<path d="M2990 2045 l0 -75 388 0 389 0 0 75 0 75 -389 0 -388 0 0 -75z"/>
<path d="M2990 1395 l0 -75 328 0 327 0 -3 75 -4 75 -324 0 -324 0 0 -75z"/>
<path d="M2990 846 l0 -76 206 0 207 0 99 -97 99 -98 20 27 c11 15 36 37 55
49 l36 22 -99 99 c-144 146 -133 142 -400 146 l-223 4 0 -76z"/>
</g>
</svg>
