<?xml version="1.0" standalone="no"?>
<!DOCTYPE svg PUBLIC "-//W3C//DTD SVG 20010904//EN"
 "http://www.w3.org/TR/2001/REC-SVG-20010904/DTD/svg10.dtd">
<svg version="1.0" xmlns="http://www.w3.org/2000/svg"
 width="512.000000pt" height="512.000000pt" viewBox="0 0 512.000000 512.000000"
 preserveAspectRatio="xMidYMid meet">

<g transform="translate(0.000000,512.000000) scale(0.100000,-0.100000)"
fill="#000000" stroke="none">
<path d="M270 4921 c-83 -26 -162 -85 -208 -159 -66 -103 -62 19 -62 -1853 0
-1670 0 -1698 20 -1760 36 -114 112 -194 229 -241 l56 -23 832 -3 c458 -2 833
-6 833 -10 0 -28 -96 -335 -115 -368 -32 -55 -96 -111 -164 -143 l-56 -26
-330 -3 c-369 -4 -365 -3 -365 -72 0 -25 7 -43 21 -56 21 -19 61 -19 1599 -19
1538 0 1578 0 1599 19 14 13 21 31 21 56 0 69 4 68 -365 72 l-330 3 -56 26
c-68 32 -132 88 -164 143 -19 33 -115 340 -115 368 0 4 375 8 833 10 l832 3
56 23 c117 47 193 127 229 241 20 62 20 90 20 1761 0 1671 0 1699 -20 1761
-36 114 -115 197 -226 239 -54 20 -66 20 -2317 19 -1244 0 -2273 -4 -2287 -8z
m4601 -176 c27 -19 54 -50 71 -84 l28 -53 0 -1339 0 -1339 -2410 0 -2410 0 0
1335 c0 1177 2 1340 15 1372 24 58 60 99 107 122 l43 21 2257 -2 2256 -3 43
-30z m99 -3249 l0 -284 -28 -53 c-36 -69 -88 -106 -167 -119 -82 -13 -4348
-13 -4430 0 -79 13 -131 50 -167 119 l-28 53 0 284 0 284 2410 0 2410 0 0
-284z m-1961 -683 c11 -38 35 -122 54 -188 43 -150 55 -178 101 -238 20 -26
36 -49 36 -52 0 -3 -288 -5 -640 -5 -352 0 -640 2 -640 5 0 3 16 26 36 52 46
60 58 88 101 238 19 66 43 150 54 188 l20 67 429 0 429 0 20 -67z"/>
<path d="M320 4608 c-20 -21 -20 -32 -20 -573 0 -541 0 -552 20 -573 14 -14
33 -22 55 -22 22 0 41 8 55 22 20 21 20 32 20 520 l0 498 2110 0 2110 0 0
-1125 0 -1125 -2110 0 -2110 0 0 503 c0 493 0 504 -20 525 -14 14 -33 22 -55
22 -22 0 -41 -8 -55 -22 -20 -21 -20 -32 -20 -572 1 -594 -1 -575 54 -596 38
-14 4374 -14 4412 0 56 22 53 -53 54 1271 0 1219 0 1225 -20 1247 l-21 22
-2219 0 -2219 0 -21 -22z"/>
<path d="M2465 1613 c-82 -43 -125 -113 -125 -203 0 -130 90 -220 220 -220
130 0 220 90 220 220 0 90 -42 160 -122 201 -47 24 -150 25 -193 2z m147 -150
c23 -20 24 -80 1 -105 -20 -23 -80 -24 -105 -1 -23 20 -24 80 -1 105 20 23 80
24 105 1z"/>
</g>
</svg>
